<?xml version="1.0" encoding="UTF-8" standalone="no"?>
<svg
   xmlns:dc="http://purl.org/dc/elements/1.1/"
   xmlns:cc="http://creativecommons.org/ns#"
   xmlns:rdf="http://www.w3.org/1999/02/22-rdf-syntax-ns#"
   xmlns:svg="http://www.w3.org/2000/svg"
   xmlns="http://www.w3.org/2000/svg"
   xmlns:sodipodi="http://sodipodi.sourceforge.net/DTD/sodipodi-0.dtd"
   xmlns:inkscape="http://www.inkscape.org/namespaces/inkscape"
   sodipodi:docname="logoCDMX.svg"
   inkscape:version="1.0 (4035a4fb49, 2020-05-01)"
   id="svg8"
   version="1.1"
   viewBox="0 3 39.485664 32.33133"
   height="32.331333mm"
   width="39.485664mm">
  <defs
     id="defs2">
    <clipPath
       clipPathUnits="userSpaceOnUse"
       id="clipPath34">
      <path
         d="M 0,85.120003 V 541.12 H 810.56 V 85.120003 Z"
         clip-rule="evenodd"
         id="path32" />
    </clipPath>
    <clipPath
       clipPathUnits="userSpaceOnUse"
       id="clipPath50">
      <path
         d="m 0,512.96002 h 770.71997 v 12.95996 H 0 Z"
         clip-rule="evenodd"
         id="path48" />
    </clipPath>
    <clipPath
       clipPathUnits="userSpaceOnUse"
       id="clipPath60">
      <path
         d="M 0,85.120003 V 541.12 H 810.56 V 85.120003 Z"
         clip-rule="evenodd"
         id="path58" />
    </clipPath>
    <clipPath
       clipPathUnits="userSpaceOnUse"
       id="clipPath88">
      <path
         d="M 0,85.120003 V 541.12 H 810.56 V 85.120003 Z"
         clip-rule="evenodd"
         id="path86" />
    </clipPath>
    <clipPath
       clipPathUnits="userSpaceOnUse"
       id="clipPath936">
      <path
         d="M 0,85.120003 V 541.12 H 810.56 V 85.120003 Z"
         clip-rule="evenodd"
         id="path934" />
    </clipPath>
    <clipPath
       clipPathUnits="userSpaceOnUse"
       id="clipPath984">
      <path
         d="M 0,85.120003 V 541.12 H 810.56 V 85.120003 Z"
         clip-rule="evenodd"
         id="path982" />
    </clipPath>
    <clipPath
       clipPathUnits="userSpaceOnUse"
       id="clipPath1032">
      <path
         d="M 0,85.120003 V 541.12 H 810.56 V 85.120003 Z"
         clip-rule="evenodd"
         id="path1030" />
    </clipPath>
    <clipPath
       clipPathUnits="userSpaceOnUse"
       id="clipPath1148">
      <path
         d="M 0,85.120003 V 541.12 H 810.56 V 85.120003 Z"
         clip-rule="evenodd"
         id="path1146" />
    </clipPath>
    <clipPath
       clipPathUnits="userSpaceOnUse"
       id="clipPath1196">
      <path
         d="M 0,85.120003 V 541.12 H 810.56 V 85.120003 Z"
         clip-rule="evenodd"
         id="path1194" />
    </clipPath>
    <clipPath
       clipPathUnits="userSpaceOnUse"
       id="clipPath1244">
      <path
         d="M 0,85.120003 V 541.12 H 810.56 V 85.120003 Z"
         clip-rule="evenodd"
         id="path1242" />
    </clipPath>
    <clipPath
       clipPathUnits="userSpaceOnUse"
       id="clipPath1268">
      <path
         d="M 0,85.120003 V 541.12 H 810.56 V 85.120003 Z"
         clip-rule="evenodd"
         id="path1266" />
    </clipPath>
    <clipPath
       clipPathUnits="userSpaceOnUse"
       id="clipPath1304">
      <path
         d="M 0,85.120003 V 541.12 H 810.56 V 85.120003 Z"
         clip-rule="evenodd"
         id="path1302" />
    </clipPath>
    <clipPath
       clipPathUnits="userSpaceOnUse"
       id="clipPath1324">
      <path
         d="M 0,85.120003 V 541.12 H 810.56 V 85.120003 Z"
         clip-rule="evenodd"
         id="path1322" />
    </clipPath>
    <clipPath
       clipPathUnits="userSpaceOnUse"
       id="clipPath1352">
      <path
         d="M 0,85.120003 V 541.12 H 810.56 V 85.120003 Z"
         clip-rule="evenodd"
         id="path1350" />
    </clipPath>
  </defs>
  <sodipodi:namedview
     inkscape:window-maximized="1"
     inkscape:window-y="-9"
     inkscape:window-x="-9"
     inkscape:window-height="871"
     inkscape:window-width="1440"
     fit-margin-left="3"
     fit-margin-bottom="3"
     fit-margin-right="3"
     fit-margin-top="3"
     showgrid="false"
     inkscape:document-rotation="0"
     inkscape:current-layer="layer1"
     inkscape:document-units="mm"
     inkscape:cy="74.078316"
     inkscape:cx="-17.043953"
     inkscape:zoom="1.979899"
     inkscape:pageshadow="2"
     inkscape:pageopacity="0.0"
     borderopacity="1.0"
     bordercolor="#666666"
     pagecolor="#ffffff"
     id="base" />
  <metadata
     id="metadata5">
    <rdf:RDF>
      <cc:Work
         rdf:about="">
        <dc:format>image/svg+xml</dc:format>
        <dc:type
           rdf:resource="http://purl.org/dc/dcmitype/StillImage" />
        <dc:title></dc:title>
      </cc:Work>
    </rdf:RDF>
  </metadata>
  <g
     transform="translate(-218.73648,-89.078087)"
     id="layer1"
     inkscape:groupmode="layer"
     inkscape:label="Capa 1">
    <g
       transform="translate(105.57146,10.423512)"
       id="g3014">
      <g
         id="g2900">
        <g
           transform="matrix(0.26458333,0,0,0.26458333,139.91401,94.518236)"
           id="g1042">
          <path
             id="path1044"
             style="fill:#10ae4b;fill-opacity:1;fill-rule:nonzero;stroke:none"
             d="M 0,0 C 0.32,0.64 0.96,0.8 1.6,0.8 2.56,0.8 3.04,0 3.04,0 l 15.519999,-20 c 1.280001,-1.280001 2.560002,-0.16 2.560002,-0.16 1.279999,1.280001 0.32,2.4 0.32,2.4 L 18.08,-13.28 v 0 c -0.32,0.32 -0.639999,0.8 -0.639999,1.12 0,0.48 0.159999,0.96 0.479999,1.12 v 0 L 21.440001,-6.56 32.48,-20.48 28,-26.08 27.200001,-27.200001 C 26.559999,-28.16 24.959999,-28.48 24.959999,-28.48 H 18.24 c -1.600001,0 -2.56,1.279999 -2.56,1.279999 L -2.88,-3.52 Z" />
        </g>
        <g
           transform="matrix(0.26458333,0,0,0.26458333,139.70235,91.300903)"
           id="g1046">
          <path
             id="path1048"
             style="fill:#10ae4b;fill-opacity:1;fill-rule:nonzero;stroke:none"
             d="M 0,0 -4.32,-5.6 C -5.28,-7.04 -4,-8 -4,-8 c 1.76,-0.96 2.72,0.48 2.72,0.48 l 3.52,4.64 4.32,-5.6 -4.96,-6.4 c -1.12,-1.6 -2.88,-1.44 -2.88,-1.44 h -6.08 c -1.76,0 -2.72,1.28 -2.72,1.28 L -15.2,-8.48 -4.32,5.6 Z" />
        </g>
        <g
           transform="matrix(0.26458333,0,0,0.26458333,144.23201,92.613241)"
           id="g1050">
          <path
             id="path1052"
             style="fill:#10ae4b;fill-opacity:1;fill-rule:nonzero;stroke:none"
             d="m 0,0 c 0,0 -0.64,-0.8 -1.6,-0.8 -0.96,0 -1.44,0.64 -1.44,0.64 L -18.719999,20 c -1.120001,1.440001 -2.560002,0.32 -2.560002,0.32 -1.279998,-1.279999 -0.16,-2.56 -0.16,-2.56 L -17.92,13.28 v 0 c 0.16,-0.32 0.479999,-0.8 0.479999,-1.28 0,-0.32 -0.159999,-0.8 -0.479999,-1.12 v 0 L -21.440001,6.56 -32.48,20.639999 -26.24,28.48 h 9.600001 L 2.88,3.68 Z" />
        </g>
        <g
           transform="matrix(0.26458333,0,0,0.26458333,144.44368,95.788241)"
           id="g1054">
          <path
             id="path1056"
             style="fill:#10ae4b;fill-opacity:1;fill-rule:nonzero;stroke:none"
             d="M 0,0 4.32,5.76 C 5.44,7.2 4.16,8.32 4.16,8.32 2.4,9.44 1.44,7.68 1.44,7.68 l -3.84,-4.8 -4.32,5.6 6.24,8 h 9.6 L 15.36,8.64 4.32,-5.44 Z" />
        </g>
        <g
           transform="matrix(0.26458333,0,0,0.26458333,148.46535,92.401569)"
           id="g1058">
          <path
             id="path1060"
             style="fill:#10ae4b;fill-opacity:1;fill-rule:nonzero;stroke:none"
             d="M 0,0 C -2.4,0 -4.48,2.08 -4.48,4.48 -4.48,6.88 -2.4,8.8 0,8.8 2.4,8.8 4.48,6.88 4.48,4.48 4.48,2.08 2.4,0 0,0 Z m 0,6.88 c -1.28,0 -2.4,-1.12 -2.4,-2.4 0,-1.28 1.12,-2.4 2.4,-2.4 1.28,0 2.4,1.12 2.4,2.4 0,1.28 -1.12,2.4 -2.4,2.4 z" />
        </g>
        <g
           transform="matrix(0.26458333,0,0,0.26458333,142.07301,86.982908)"
           id="g1062">
          <path
             id="path1064"
             style="fill:#10ae4b;fill-opacity:1;fill-rule:nonzero;stroke:none"
             d="M 0,0 C 2.4,0 4.48,-1.92 4.48,-4.32 4.48,-6.72 2.4,-8.8 0,-8.8 c -2.4,0 -4.48,2.08 -4.48,4.48 C -4.48,-1.92 -2.4,0 0,0 Z m 0,-6.72 c 1.28,0 2.4,1.12 2.4,2.4 0,1.28 -1.12,2.4 -2.4,2.4 -1.28,0 -2.4,-1.12 -2.4,-2.4 0,-1.28 1.12,-2.4 2.4,-2.4 z" />
        </g>
        <g
           transform="matrix(0.26458333,0,0,0.26458333,136.82368,93.586905)"
           id="g1066">
          <path
             id="path1068"
             style="fill:#10ae4b;fill-opacity:1;fill-rule:nonzero;stroke:none"
             d="m 0,0 c 0,-2.56 -1.92,-4.48 -4.48,-4.48 -2.4,0 -4.48,1.92 -4.48,4.48 0,2.4 2.08,4.32 4.48,4.32 C -1.92,4.32 0,2.4 0,0 Z m -6.72,0 c 0,-1.28 0.96,-2.4 2.24,-2.4 1.28,0 2.4,1.12 2.4,2.4 0,1.28 -1.12,2.24 -2.4,2.24 -1.28,0 -2.24,-0.96 -2.24,-2.24 z" />
        </g>
        <g
           transform="matrix(0.26458333,0,0,0.26458333,142.07301,100.14857)"
           id="g1070">
          <path
             id="path1072"
             style="fill:#10ae4b;fill-opacity:1;fill-rule:nonzero;stroke:none"
             d="M 0,0 C -2.4,0 -4.48,1.92 -4.48,4.48 -4.48,6.88 -2.4,8.8 0,8.8 2.4,8.8 4.48,6.88 4.48,4.48 4.48,1.92 2.4,0 0,0 Z m 0,6.72 c -1.28,0 -2.4,-0.96 -2.4,-2.24 0,-1.44 1.12,-2.4 2.4,-2.4 1.28,0 2.4,0.96 2.4,2.4 0,1.28 -1.12,2.24 -2.4,2.24 z" />
        </g>
        <g
           transform="matrix(0.26458333,0,0,0.26458333,129.41535,86.136239)"
           id="g1074">
          <path
             id="path1076"
             style="fill:#898d8d;fill-opacity:1;fill-rule:nonzero;stroke:none"
             d="m 0,0 v 32.959999 c 0,4 -1.28,7.68 -3.68,10.880001 -2.08,2.720001 -4.8,5.119999 -8.48,7.200001 C -17.6,54.240002 -23.040001,55.84 -24.32,56.16 -25.6,55.84 -31.040001,54.400002 -36.48,51.200001 -40,48.959999 -42.880001,46.560001 -44.959999,44 c -2.400002,-3.360001 -3.68,-7.040001 -3.68,-11.040001 V 0 Z m 1.28,-1.12 h -51.199998 v 34.079999 c 0,18.720001 25.599998,24.48 25.599998,24.48 v 0 c 0,0 25.6,-5.759999 25.6,-24.48 z" />
        </g>
        <g
           transform="matrix(0.26458333,0,0,0.26458333,124.63168,88.718575)"
           id="g1078">
          <path
             id="path1080"
             style="fill:#898d8d;fill-opacity:1;fill-rule:nonzero;stroke:none"
             d="m 0,0 v -3.2 h -3.2 v 3.04 H -4.48 V -3.2 h -3.36 v 3.04 H -9.12 V -3.2 h -3.2 V 0 l 1.6,2.72 c 0,0.16 0,0.16 0,0.32 v 14.400001 h 1.6 V 12.32 c 0,-1.28 1.28,-2.4 2.88,-2.4 1.44,0 2.88,1.12 2.88,2.4 v 5.120001 h 1.6 L -1.76,12 c 0,0 0,0 0,-0.16 V 9.28 c 0,-0.16 0,-0.16 0,-0.16 V 7.2 c 0,0 0,0 0,0 V 6.4 3.04 c 0,-0.16 0,-0.16 0.16,-0.32 z" />
        </g>
        <g
           transform="matrix(0.26458333,0,0,0.26458333,121.45668,93.417569)"
           id="g1082">
          <path
             id="path1084"
             style="fill:#898d8d;fill-opacity:1;fill-rule:nonzero;stroke:none"
             d="m 0,0 v -4.8 l -0.48,0.32 c -0.32,0.16 -0.48,0.16 -0.8,0 l -0.64,-0.48 c 0,0 0,0.16 0,0.16 v 1.76 c 0,0.16 -0.16,0.32 -0.16,0.48 0,0 0,0.16 0.16,0.16 0.8,0.64 0.8,1.6 0.64,2.4 z" />
        </g>
        <g
           transform="matrix(0.26458333,0,0,0.26458333,122.98068,91.681903)"
           id="g1086">
          <path
             id="path1088"
             style="fill:#898d8d;fill-opacity:1;fill-rule:nonzero;stroke:none"
             d="M 0,0 C -0.96,0 -1.6,0.64 -1.6,1.12 V 6.24 H 1.6 V 1.12 C 1.6,0.64 0.96,0 0,0 Z" />
        </g>
        <g
           transform="matrix(0.26458333,0,0,0.26458333,117.90068,93.417569)"
           id="g1090">
          <path
             id="path1092"
             style="fill:#898d8d;fill-opacity:1;fill-rule:nonzero;stroke:none"
             d="m 0,0 c -0.16,-0.32 -0.32,-0.8 -0.48,-1.44 -0.16,-0.96 0,-1.92 0,-1.92 0,-0.32 0.16,-0.48 0.32,-0.64 l 1.44,-0.32 -1.6,-1.12 C -0.48,-5.6 -0.48,-5.76 -0.48,-6.08 v -1.6 c 0,-0.32 0,-0.48 0.32,-0.64 l 0.64,-0.32 v -0.64 l -0.64,-0.16 c -0.16,-0.16 -0.32,-0.32 -0.32,-0.64 v -2.08 c 0,-0.32 0.16,-0.64 0.64,-0.64 h 1.92 c -0.16,-0.48 -0.16,-1.12 0,-1.76 0.16,-0.8 0.64,-1.6 0.8,-2.079999 v -0.640002 c 0,-0.16 0,-0.479999 0.16,-0.479999 0,-0.16 0.16,-0.32 0.48,-0.32 h 0.96 c 0.16,0 0.32,0 0.32,0.16 l 2.56,1.6 h 1.28 c 0.16,0 0.32,0 0.48,0.16 0,0.16 0.16,0.32 0.16,0.48 l -0.16,2.08 c 0,0.16 0,0.32 -0.16,0.32 h 0.8 c 0.16,0 0.32,0.16 0.32,0.32 l 0.48,0.32 0.16,-0.16 0.48,-0.96 c 0.16,-0.32 0.32,-0.48 0.64,-0.48 h 1.6 v -0.32 l -1.6,-2.720001 c 0,-0.16 0,-0.16 0,-0.319999 v -4 c 0,-0.32 0.16,-0.64 0.64,-0.64 h 13.6 c 0.32,0 0.639999,0.32 0.639999,0.64 v 4 c 0,0.159999 -0.16,0.159999 -0.16,0.319999 l -1.6,2.720001 v 0.32 h 1.6 c 0.32,0 0.480002,0.16 0.640002,0.48 l 0.479999,0.96 0.16,0.16 0.48,-0.32 c 0,-0.16 0.16,-0.32 0.319999,-0.32 h 0.800002 c 0,0 -0.16,-0.16 -0.16,-0.32 v -2.08 c -0.16,-0.16 0,-0.32 0.16,-0.48 0,-0.16 0.159999,-0.16 0.319999,-0.16 h 1.280001 l 2.559997,-1.6 c 0,-0.16 0.16,-0.16 0.32,-0.16 h 0.960003 c 0.32,0 0.48,0.16 0.48,0.32 0.159999,0 0.319999,0.319999 0.159999,0.479999 v 0.640002 c 0.16,0.479999 0.64,1.279999 0.8,2.079999 0.16,0.64 0.16,1.28 0,1.76 h 2.080002 c 0.319999,0 0.639999,0.32 0.639999,0.64 l -0.16,2.08 c 0,0.32 0,0.48 -0.32,0.64 l -0.479999,0.16 v 0.64 l 0.479999,0.32 c 0.32,0.16 0.32,0.32 0.32,0.64 v 1.6 c 0,0.32 0,0.48 -0.16,0.64 l -1.600002,1.12 1.440002,0.32 c 0.16,0.16 0.32,0.32 0.32,0.64 0,0 0.16,0.96 0,1.92 -0.16,0.64 -0.32,1.12 -0.479999,1.44 h 2.239997 c 0.16,0 0.16,0 0.16,0 V -24.32 H -2.24 V 0 Z" />
        </g>
        <g
           transform="matrix(0.26458333,0,0,0.26458333,125.01268,92.782569)"
           id="g1094">
          <path
             id="path1096"
             style="fill:#898d8d;fill-opacity:1;fill-rule:nonzero;stroke:none"
             d="M 0,0 C 0.16,0 0.16,-0.16 0.32,-0.16 0.16,-0.32 0,-0.48 0,-0.64 V -2.4 c 0,0 0,-0.16 0,-0.16 l -0.64,0.48 c -0.32,0.16 -0.48,0.16 -0.8,0 L -1.92,-2.4 v 4.8 h 1.28 C -0.8,1.6 -0.8,0.64 0,0 Z" />
        </g>
        <g
           transform="matrix(0.26458333,0,0,0.26458333,127.25635,96.846575)"
           id="g1098">
          <path
             id="path1100"
             style="fill:#898d8d;fill-opacity:1;fill-rule:nonzero;stroke:none"
             d="m 0,0 c -0.48,0 -0.64,-0.16 -0.64,-0.64 v -4 c 0,-0.32 -0.16,-0.8 -0.48,-0.96 -0.32,-0.32 -0.64,-0.64 -1.28,-0.48 -0.96,0 -1.6,0.64 -1.6,1.44 v 4 c 0,0.16 -0.16,0.32 -0.32,0.48 C -4.32,0 -4.48,0 -4.64,0 H -8.48 C -8.8,0 -9.12,-0.16 -9.12,-0.64 v -4 c 0,-0.32 -0.16,-0.8 -0.48,-0.96 -0.16,-0.32 -0.64,-0.64 -1.28,-0.48 -0.32,0 -0.8,0 -1.12,0.32 L -8.8,9.92 C -4.48,8 0.64,4.96 3.36,0 Z" />
        </g>
        <g
           transform="matrix(0.26458333,0,0,0.26458333,124.58935,99.598239)"
           id="g1102">
          <path
             id="path1104"
             style="fill:#898d8d;fill-opacity:1;fill-rule:nonzero;stroke:none"
             d="M 0,0 -4.32,-22.08 H -7.84 L -12.16,0 c 0,0 0,0 0,0 3.04,1.28 5.44,1.92 6.08,2.08 C -5.44,1.92 -2.88,1.28 0,0 0,0 0,0 0,0 Z" />
        </g>
        <g
           transform="matrix(0.26458333,0,0,0.26458333,121.88002,95.322572)"
           id="g1106">
          <path
             id="path1108"
             style="fill:#898d8d;fill-opacity:1;fill-rule:nonzero;stroke:none"
             d="m 0,0 c -0.32,-0.32 -0.64,-0.32 -1.12,-0.32 0,0 0,0 0,0 -0.64,0 -1.12,0.16 -1.28,0.48 -0.32,0.16 -0.48,0.64 -0.48,0.96 v 4 c 0,0.48 -0.32,0.64 -0.64,0.64 H -7.2 c -0.16,0 -0.32,0 -0.48,-0.16 C -7.84,5.44 -7.84,5.28 -7.84,5.12 v -4 c -0.16,-0.8 -0.64,-1.44 -1.6,-1.44 0,0 0,0 -0.16,0 -0.48,0 -0.96,0.16 -1.12,0.48 -0.32,0.16 -0.48,0.64 -0.48,0.96 v 4 c 0,0.48 -0.32,0.64 -0.64,0.64 h -3.52 c 2.88,4.96 8,8 12.32,9.92 z" />
        </g>
        <g
           transform="matrix(0.26458333,0,0,0.26458333,128.65335,93.756241)"
           id="g1110">
          <path
             id="path1112"
             style="fill:#898d8d;fill-opacity:1;fill-rule:nonzero;stroke:none"
             d="m 0,0 h -18.4 l 0.959999,4.64 c 0.32,-0.32 0.800002,-0.32 1.280001,-0.32 0.8,0 1.6,0.16 2.24,0.8 0.48,0.48 0.8,1.28 0.8,1.92 v 3.36 h 2.56 V 7.04 c 0,0 0,-0.16 0,-0.16 0.16,-1.44 1.28,-2.56 2.88,-2.56 0.8,0 1.6,0.16 2.08,0.8 0.64,0.48 0.96,1.28 0.96,1.92 v 3.36 h 3.36 C -0.48,8.64 0.16,6.4 0.16,4 V 0 c 0,0 0,0 -0.16,0 z" />
        </g>
        <g
           transform="matrix(0.26458333,0,0,0.26458333,118.57802,96.507908)"
           id="g1114">
          <path
             id="path1116"
             style="fill:#898d8d;fill-opacity:1;fill-rule:nonzero;stroke:none"
             d="M 0,0 V -3.36 C 0,-4 0.32,-4.8 0.8,-5.28 c 0.64,-0.64 1.44,-0.8 2.24,-0.8 1.44,0 2.72,1.12 2.88,2.56 0,0 0,0.16 0,0.16 V 0 h 2.4 v -3.36 c 0,-0.64 0.32,-1.44 0.96,-1.92 0.48,-0.64 1.28,-0.8 2.08,-0.8 0.48,0 0.96,0 1.28,0.32 L 13.6,-10.4 H -4.8 v 4 c 0,2.4 0.48,4.64 1.28,6.4 z" />
        </g>
        <g
           transform="matrix(0.26458333,0,0,0.26458333,118.95902,93.078903)"
           id="g1118">
          <path
             id="path1120"
             style="fill:#898d8d;fill-opacity:1;fill-rule:nonzero;stroke:none"
             d="m 0,0 h 0.96 c 0.16,0.16 0.16,0.32 0.16,0.48 0,0 0,0.16 0,0.16 0,0.32 0,0.48 0,0.64 H -2.56 C -3.04,0.96 -3.2,-0.48 -3.2,-1.6 l 1.44,-0.48 c 0.32,-0.16 0.48,-0.32 0.48,-0.64 v -0.64 c 0,-0.16 -0.16,-0.32 -0.32,-0.48 l -1.6,-1.28 v -0.96 l 0.48,-0.32 c 0.32,-0.16 0.32,-0.32 0.32,-0.64 v -1.28 c 0,-0.32 -0.16,-0.48 -0.32,-0.64 L -3.2,-9.12 v -1.12 h 1.6 l 0.8,1.28 v 1.76 l -0.64,1.76 c 0,0.16 0,0.32 0.16,0.48 0.16,0.16 0.32,0.32 0.48,0.32 h 0.48 c 0.32,0 0.64,-0.16 0.64,-0.48 0,-0.32 0.16,-1.12 0.32,-1.44 0.16,-0.32 0.64,-0.96 0.8,-1.28 0.32,-0.16 0.32,-0.64 0,-0.8 l -2.08,-2.56 c 0,-0.32 -0.16,-1.28 0,-1.76 0.16,-0.8 0.64,-1.6 0.8,-1.92 0,-0.16 0.16,-0.32 0,-0.48 v -0.16 h 0.16 l 2.56,1.6 c 0.16,0.16 0.16,0.16 0.32,0.16 H 4 l -0.16,0.96 -0.8,0.32 c -0.16,0 -0.32,0.32 -0.32,0.48 v 0.64 c 0,0.48 0.16,0.64 0.48,0.64 h 2.24 l 0.64,0.64 c 0.16,0.16 0.48,0.32 0.8,0 0,0 0.96,-0.8 0.96,-0.8 l 0.32,-0.8 h 1.28 v 2.4 c 0,0 -2.24,0.8 -2.4,0.8 -0.16,0.16 -0.32,0.8 -0.32,0.96 0,0.16 0,0.32 0.32,0.48 0,0 0.64,0.48 0.8,0.64 l 0.8,-0.64 h 0.8 v 2.08 L 8.64,-4.48 5.92,-6.24 C 5.76,-6.4 5.28,-6.4 5.12,-6.08 L 4.64,-5.6 c -0.16,0.32 -0.16,0.64 0.16,0.8 l 1.44,1.44 v 1.28 L 4.8,-1.44 c -0.32,0 -0.48,0.32 -0.48,0.48 v 0.32 C 4.32,-0.32 4.64,0 4.96,0 h 1.92 c 0.32,0.32 0.16,0.96 0,1.28 H 2.72 C 2.56,1.12 2.4,0.8 2.4,0.64 c 0,-0.16 0,-0.16 0,-0.32 0,-0.32 0,-0.8 0.16,-1.12 l 0.96,-1.12 c 0,-0.16 0.16,-0.32 0.16,-0.48 v -0.48 c 0,-0.32 -0.16,-0.48 -0.32,-0.64 -0.16,-0.16 -0.32,-0.16 -0.64,0 l -1.44,0.64 c -0.32,0 -0.48,0.32 -0.48,0.48 v 0.64 l -0.96,0.32 c -0.32,0 -0.48,0.32 -0.48,0.48 v 0.32 C -0.64,-0.32 -0.32,0 0,0 Z" />
        </g>
        <g
           transform="matrix(0.26458333,0,0,0.26458333,127.00235,93.078903)"
           id="g1122">
          <path
             id="path1124"
             style="fill:#898d8d;fill-opacity:1;fill-rule:nonzero;stroke:none"
             d="m 0,0 h -0.96 c -0.16,0.16 -0.16,0.32 -0.16,0.48 0,0 0,0.16 0,0.16 0,0.32 0,0.48 0,0.64 H 2.56 C 3.04,0.96 3.2,-0.48 3.36,-1.6 L 1.76,-2.08 C 1.44,-2.24 1.28,-2.4 1.28,-2.72 v -0.64 c 0,-0.16 0.16,-0.32 0.32,-0.48 L 3.36,-5.12 V -6.08 L 2.72,-6.4 C 2.56,-6.56 2.4,-6.72 2.4,-7.04 v -1.28 c 0,-0.32 0.16,-0.48 0.32,-0.64 l 0.64,-0.16 v -1.12 H 1.6 l -0.8,1.28 v 1.76 l 0.64,1.76 c 0,0.16 0,0.32 -0.16,0.48 C 1.12,-4.8 0.96,-4.64 0.8,-4.64 H 0.32 c -0.32,0 -0.64,-0.16 -0.64,-0.48 0,-0.32 -0.16,-1.12 -0.32,-1.44 -0.16,-0.32 -0.48,-0.96 -0.8,-1.28 -0.32,-0.16 -0.16,-0.64 0,-0.8 l 2.08,-2.56 c 0.16,-0.32 0.16,-1.28 0,-1.76 -0.16,-0.8 -0.64,-1.6 -0.8,-1.92 0,-0.16 0,-0.32 0,-0.48 v -0.16 h -0.16 l -2.56,1.6 c -0.16,0.16 -0.16,0.16 -0.32,0.16 h -0.64 v 0.96 l 0.8,0.32 c 0.32,0 0.48,0.32 0.48,0.48 v 0.64 c 0,0.48 -0.32,0.64 -0.64,0.64 h -2.24 l -0.48,0.64 c -0.32,0.16 -0.64,0.32 -0.96,0 0,0 -0.96,-0.8 -0.96,-0.8 l -0.32,-0.8 h -1.28 v 2.4 c 0,0 2.24,0.8 2.56,0.8 0,0.16 0.16,0.8 0.16,0.96 0,0.16 0,0.32 -0.32,0.48 0,0 -0.64,0.48 -0.8,0.64 l -0.64,-0.64 h -0.96 v 2.08 l 0.8,0.48 2.72,-1.76 c 0.32,-0.16 0.64,-0.16 0.8,0.16 l 0.48,0.48 c 0.16,0.32 0.16,0.64 -0.16,0.8 l -1.44,1.44 v 1.28 l 1.44,0.64 c 0.32,0 0.48,0.32 0.48,0.48 v 0.32 C -4.32,-0.32 -4.64,0 -4.96,0 h -1.92 c -0.32,0.32 -0.16,0.96 0,1.28 h 4.16 C -2.56,1.12 -2.4,0.8 -2.4,0.64 c 0,-0.16 0,-0.16 0,-0.32 0,-0.32 0,-0.8 -0.16,-1.12 l -0.96,-1.12 c 0,-0.16 -0.16,-0.32 -0.16,-0.48 v -0.48 c 0,-0.32 0.16,-0.48 0.32,-0.64 0.16,-0.16 0.32,-0.16 0.64,0 l 1.6,0.64 c 0.16,0 0.32,0.32 0.32,0.48 l 0.16,0.64 0.8,0.32 c 0.32,0 0.48,0.32 0.48,0.48 v 0.32 C 0.64,-0.32 0.32,0 0,0 Z" />
        </g>
        <g
           transform="matrix(0.26458333,0,0,0.26458333,116.20735,105.94824)"
           id="g1126">
          <path
             id="path1128"
             style="fill:#898d8d;fill-opacity:1;fill-rule:nonzero;stroke:none"
             d="m 0,0 v 0 c 0,-2.4 1.76,-4.48 4.32,-4.48 1.44,0 2.4,0.32 3.2,1.12 l -0.64,0.8 C 6.24,-3.2 5.6,-3.68 4.32,-3.68 c -1.92,0 -3.2,1.6 -3.2,3.52 V 0 c 0,1.92 1.28,3.52 3.36,3.52 0.96,0 1.92,-0.48 2.4,-0.96 V 0.48 H 4.32 v -0.8 H 7.84 V 3.04 C 7.04,3.68 5.92,4.32 4.48,4.32 1.76,4.32 0,2.4 0,0 Z" />
        </g>
        <g
           transform="matrix(0.26458333,0,0,0.26458333,119.12835,105.94824)"
           id="g1130">
          <path
             id="path1132"
             style="fill:#898d8d;fill-opacity:1;fill-rule:nonzero;stroke:none"
             d="m 0,0 v 0 c 0,-2.4 1.76,-4.48 4.32,-4.48 2.56,0 4.32,2.08 4.32,4.32 V 0 C 8.64,2.24 6.88,4.32 4.32,4.32 1.76,4.32 0,2.24 0,0 Z m 7.68,0 v 0 c 0,-2.08 -1.44,-3.68 -3.36,-3.68 -1.92,0 -3.36,1.6 -3.36,3.52 V 0 c 0,1.92 1.44,3.52 3.36,3.52 1.92,0 3.36,-1.6 3.36,-3.52 z" />
        </g>
        <g
           transform="matrix(0.26458333,0,0,0.26458333,122.34568,104.80524)"
           id="g1134">
          <path
             id="path1136"
             style="fill:#898d8d;fill-opacity:1;fill-rule:nonzero;stroke:none"
             d="M 0,0 H 3.68 C 4.64,0 5.44,0.32 5.92,0.8 6.24,1.12 6.4,1.6 6.4,2.08 v 0 c 0,1.12 -0.64,1.76 -1.28,2.08 0.96,0.32 1.76,0.8 1.76,2.08 v 0 C 6.88,7.68 5.6,8.48 3.84,8.48 H 0 Z M 5.44,2.24 C 5.44,1.44 4.8,0.8 3.52,0.8 H 0.96 v 3.04 h 2.56 c 1.12,0 1.92,-0.64 1.92,-1.6 z M 3.68,4.64 H 0.96 v 3.04 h 2.88 c 1.28,0 2.08,-0.64 2.08,-1.6 v 0 C 5.92,5.12 5.12,4.64 3.68,4.64 Z" />
        </g>
        <g
           transform="matrix(0.26458333,0,0,0.26458333,22.60835,-0.60476014)"
           id="g1138">
          <path
             id="path1140"
             style="fill:#898d8d;fill-opacity:1;fill-rule:nonzero;stroke:none"
             d="M 387.35999,398.39999 V 406.88 h 0.96002 v -8.48001 z" />
        </g>
        <g
           transform="matrix(0.26458333,0,0,0.26458333,22.60835,-0.60476014)"
           id="g1142">
          <g
             clip-path="url(#clipPath1148)"
             id="g1144">
            <g
               transform="translate(392.16,398.39999)"
               id="g1150">
              <path
                 id="path1152"
                 style="fill:#898d8d;fill-opacity:1;fill-rule:nonzero;stroke:none"
                 d="M 0,0 H 6.24 V 0.8 H 0.96 V 3.84 H 5.6 v 0.8 H 0.96 v 3.04 h 5.28 v 0.8 H 0 Z" />
            </g>
            <g
               transform="translate(401.60001,398.39999)"
               id="g1154">
              <path
                 id="path1156"
                 style="fill:#898d8d;fill-opacity:1;fill-rule:nonzero;stroke:none"
                 d="M 0,0 H 3.68 C 4.8,0 5.6,0.32 6.08,0.8 6.56,1.28 6.72,1.76 6.72,2.56 v 0 C 6.72,4 5.76,4.8 4.48,4.96 L 7.04,8.48 H 5.92 L 3.36,5.12 H 0.96 V 8.48 H 0 Z m 3.52,4.32 c 1.28,0 2.24,-0.64 2.24,-1.76 v 0 C 5.76,1.44 4.96,0.8 3.52,0.8 H 0.96 v 3.52 z" />
            </g>
            <g
               transform="translate(411.84,398.39999)"
               id="g1158">
              <path
                 id="path1160"
                 style="fill:#898d8d;fill-opacity:1;fill-rule:nonzero;stroke:none"
                 d="M 0,0 H 0.96 L 6.24,6.88 V 0 H 7.2 V 8.48 H 6.4 L 0.96,1.44 V 8.48 H 0 Z" />
            </g>
            <g
               transform="translate(422.56,402.72)"
               id="g1162">
              <path
                 id="path1164"
                 style="fill:#898d8d;fill-opacity:1;fill-rule:nonzero;stroke:none"
                 d="m 0,0 v 0 c 0,-2.4 1.76,-4.48 4.32,-4.48 2.56,0 4.32,2.08 4.32,4.32 V 0 C 8.64,2.24 6.88,4.32 4.32,4.32 1.76,4.32 0,2.24 0,0 Z m 7.68,0 v 0 c 0,-2.08 -1.44,-3.68 -3.36,-3.68 -1.92,0 -3.36,1.6 -3.36,3.52 V 0 c 0,1.92 1.44,3.52 3.36,3.52 1.92,0 3.36,-1.6 3.36,-3.52 z" />
            </g>
            <g
               transform="translate(439.20001,398.39999)"
               id="g1166">
              <path
                 id="path1168"
                 style="fill:#898d8d;fill-opacity:1;fill-rule:nonzero;stroke:none"
                 d="M 0,0 H 2.88 C 5.6,0 7.52,1.76 7.52,4.16 v 0.16 c 0,2.4 -1.92,4.16 -4.64,4.16 H 0 Z M 0.96,0.8 V 7.68 H 2.88 C 5.12,7.68 6.4,6.24 6.4,4.32 v 0 C 6.4,2.4 5.12,0.8 2.88,0.8 Z" />
            </g>
            <g
               transform="translate(449.76001,398.39999)"
               id="g1170">
              <path
                 id="path1172"
                 style="fill:#898d8d;fill-opacity:1;fill-rule:nonzero;stroke:none"
                 d="M 0,0 H 6.08 V 0.8 H 0.96 V 3.84 H 5.6 v 0.8 H 0.96 v 3.04 h 5.28 v 0.8 H 0 Z" />
            </g>
            <g
               id="g1174">
              <path
                 id="path1176"
                 style="fill:#898d8d;fill-opacity:1;fill-rule:nonzero;stroke:none"
                 d="m 463.67999,398.39999 h 0.96002 v 7.68 H 469.44 V 406.88 h -5.76001 z" />
            </g>
            <g
               transform="translate(475.35999,398.23999)"
               id="g1178">
              <path
                 id="path1180"
                 style="fill:#898d8d;fill-opacity:1;fill-rule:nonzero;stroke:none"
                 d="m 0,0 h 0.8 l 4,8.64 H 3.68 L 2.72,6.4 H -1.92 L -2.88,8.64 H -4 Z M 2.4,5.6 0.32,1.12 -1.6,5.6 Z" />
            </g>
            <g
               transform="translate(353.60001,417.28)"
               id="g1182">
              <path
                 id="path1184"
                 style="fill:#898d8d;fill-opacity:1;fill-rule:nonzero;stroke:none"
                 d="m 0,0 v 0 c 0,-2.4 1.92,-4.48 4.48,-4.48 1.6,0 2.56,0.64 3.36,1.44 L 6.72,-1.76 C 6.08,-2.24 5.28,-2.72 4.48,-2.72 3.04,-2.72 2.08,-1.44 2.08,0 v 0 c 0,1.44 0.96,2.72 2.4,2.72 0.96,0 1.6,-0.48 2.24,-0.96 L 8,2.88 C 7.04,3.84 6.08,4.48 4.48,4.48 1.92,4.48 0,2.56 0,0 Z" />
            </g>
          </g>
        </g>
        <g
           transform="matrix(0.26458333,0,0,0.26458333,22.60835,-0.60476014)"
           id="g1186">
          <path
             id="path1188"
             style="fill:#898d8d;fill-opacity:1;fill-rule:nonzero;stroke:none"
             d="m 363.04001,412.95999 v 8.64002 h 1.91998 v -8.64002 z" />
        </g>
        <g
           transform="matrix(0.26458333,0,0,0.26458333,22.60835,-0.60476014)"
           id="g1190">
          <g
             clip-path="url(#clipPath1196)"
             id="g1192">
            <g
               transform="translate(367.20001,417.92001)"
               id="g1198">
              <path
                 id="path1200"
                 style="fill:#898d8d;fill-opacity:1;fill-rule:nonzero;stroke:none"
                 d="M 0,0 V -4.96 H 1.76 V 0 c 0,1.28 0.8,2.08 1.92,2.08 C 4.8,2.08 5.44,1.28 5.44,0 V -4.96 H 7.36 V 0 C 7.36,2.56 5.92,3.84 3.68,3.84 1.28,3.84 0,2.56 0,0 Z" />
            </g>
            <g
               transform="translate(376.79999,412.95999)"
               id="g1202">
              <path
                 id="path1204"
                 style="fill:#898d8d;fill-opacity:1;fill-rule:nonzero;stroke:none"
                 d="m 0,0 h 3.2 c 2.72,0 4.64,1.92 4.64,4.32 v 0 c 0,2.4 -1.92,4.32 -4.64,4.32 H 0 Z m 3.2,6.88 c 1.6,0 2.56,-0.96 2.56,-2.56 v 0 C 5.76,2.88 4.8,1.76 3.2,1.76 H 1.76 v 5.12 z" />
            </g>
            <g
               transform="translate(388.79999,412.95999)"
               id="g1206">
              <path
                 id="path1208"
                 style="fill:#898d8d;fill-opacity:1;fill-rule:nonzero;stroke:none"
                 d="M 0,0 H 1.76 L 5.44,8.64 H 3.36 L 2.56,6.72 h -3.52 l -0.8,1.92 H -3.68 Z M 1.92,4.96 0.8,2.24 -0.32,4.96 Z" />
            </g>
            <g
               transform="translate(395.51999,412.95999)"
               id="g1210">
              <path
                 id="path1212"
                 style="fill:#898d8d;fill-opacity:1;fill-rule:nonzero;stroke:none"
                 d="m 0,0 h 3.36 c 2.72,0 4.48,1.92 4.48,4.32 v 0 c 0,2.4 -1.76,4.32 -4.48,4.32 H 0 Z m 3.36,6.88 c 1.44,0 2.56,-0.96 2.56,-2.56 v 0 C 5.92,2.88 4.8,1.76 3.36,1.76 H 1.92 v 5.12 z" />
            </g>
            <g
               transform="translate(408.79999,412.95999)"
               id="g1214">
              <path
                 id="path1216"
                 style="fill:#898d8d;fill-opacity:1;fill-rule:nonzero;stroke:none"
                 d="M 0,0 H 3.36 C 6.08,0 8,1.92 8,4.32 v 0 C 8,6.72 6.08,8.64 3.36,8.64 H 0 Z m 3.36,6.88 c 1.6,0 2.56,-0.96 2.56,-2.56 v 0 C 5.92,2.88 4.96,1.76 3.36,1.76 H 1.92 v 5.12 z" />
            </g>
            <g
               transform="translate(418.56,412.95999)"
               id="g1218">
              <path
                 id="path1220"
                 style="fill:#898d8d;fill-opacity:1;fill-rule:nonzero;stroke:none"
                 d="M 0,0 H 6.4 V 1.76 H 1.76 v 1.76 h 4.16 v 1.6 H 1.76 V 6.88 H 6.4 V 8.64 H 0 Z" />
            </g>
            <g
               transform="translate(430.39999,412.95999)"
               id="g1222">
              <path
                 id="path1224"
                 style="fill:#898d8d;fill-opacity:1;fill-rule:nonzero;stroke:none"
                 d="M 0,0 H 2.08 L 4.32,3.68 6.56,0 H 8.64 V 8.64 H 6.72 v -5.6 l -2.4,3.68 v 0 L 1.92,3.04 v 5.6 H 0 Z" />
            </g>
            <g
               transform="translate(441.28,412.95999)"
               id="g1226">
              <path
                 id="path1228"
                 style="fill:#898d8d;fill-opacity:1;fill-rule:nonzero;stroke:none"
                 d="M 0,0 H 6.4 V 1.76 H 1.92 v 1.76 h 4 v 1.6 h -4 V 6.88 H 6.56 V 8.64 H 0 Z m 3.52,-2.72 1.6,0.64 -1.6,1.44 H 2.24 Z" />
            </g>
            <g
               transform="translate(452,417.28)"
               id="g1230">
              <path
                 id="path1232"
                 style="fill:#898d8d;fill-opacity:1;fill-rule:nonzero;stroke:none"
                 d="m 0,0 -2.88,-4.32 h 2.24 l 1.76,2.88 1.76,-2.88 H 5.12 L 2.24,-0.16 5.12,4.32 H 3.04 L 1.12,1.44 -0.96,4.32 h -2.08 z" />
            </g>
          </g>
        </g>
        <g
           transform="matrix(0.26458333,0,0,0.26458333,22.60835,-0.60476014)"
           id="g1234">
          <path
             id="path1236"
             style="fill:#898d8d;fill-opacity:1;fill-rule:nonzero;stroke:none"
             d="m 458.56,412.95999 v 8.64002 h 1.92001 v -8.64002 z" />
        </g>
      </g>
      <g
         id="g1246"
         transform="matrix(0.26458333,0,0,0.26458333,144.90935,109.80057)">
        <path
           d="m 0,0 v 0 c 0,-2.4 1.92,-4.48 4.48,-4.48 1.6,0 2.56,0.64 3.36,1.44 L 6.72,-1.76 C 6.08,-2.24 5.44,-2.72 4.48,-2.72 3.04,-2.72 2.08,-1.44 2.08,0 v 0 c 0,1.44 0.96,2.72 2.4,2.72 0.96,0 1.6,-0.48 2.24,-0.96 L 8,2.88 C 7.04,3.84 6.08,4.48 4.48,4.48 1.92,4.48 0,2.56 0,0 Z"
           style="fill:#898d8d;fill-opacity:1;fill-rule:nonzero;stroke:none"
           id="path1248" />
      </g>
      <g
         id="g1250"
         transform="matrix(0.26458333,0,0,0.26458333,147.23768,109.80057)">
        <path
           d="M 0,0 V 0 C 0,-2.4 1.92,-4.48 4.64,-4.48 7.2,-4.48 9.12,-2.4 9.12,0 V 0 C 9.12,2.4 7.2,4.48 4.64,4.48 1.92,4.48 0,2.4 0,0 Z m 7.2,0 v 0 c 0,-1.44 -1.12,-2.72 -2.56,-2.72 -1.6,0 -2.56,1.28 -2.56,2.72 v 0 c 0,1.44 0.96,2.72 2.56,2.72 C 6.08,2.72 7.2,1.44 7.2,0 Z"
           style="fill:#898d8d;fill-opacity:1;fill-rule:nonzero;stroke:none"
           id="path1252" />
      </g>
    </g>
  </g>
</svg>
