<?xml version="1.0" encoding="utf-8"?>
<!-- Generator: Adobe Illustrator 19.2.1, SVG Export Plug-In . SVG Version: 6.00 Build 0)  -->
<svg version="1.1" id="layer" xmlns="http://www.w3.org/2000/svg" xmlns:xlink="http://www.w3.org/1999/xlink" x="0px" y="0px"
	 viewBox="0 0 652 652" style="enable-background:new 0 0 652 652;" xml:space="preserve">
<style type="text/css">
	.st0{fill:#28A231;}
	.st1{filter:url(#Adobe_OpacityMaskFilter);}
	.st2{fill:#FFFFFF;}
	.st3{mask:url(#b_1_);fill:#929190;}
	.st4{fill:#929190;}
	.st5{filter:url(#Adobe_OpacityMaskFilter_1_);}
	.st6{mask:url(#d_1_);fill:#929190;}
</style>
<g>
	<path class="st0" d="M222,328.5c0.8,1.2,1.9,1.7,3.4,1.8c2.1,0.1,3.4-2,3.4-2l34.6-44.1c2.9-3,5.7-0.6,5.7-0.6
		c2.7,2.8,0.7,5.4,0.7,5.4l-7.7,9.8l0,0.1c-1.4,1.4-1.4,3.6-0.2,5.1v0l7.8,9.8l24.5-31l-9.8-12.4l-1.8-2.3c-1.6-2.3-5.1-2.8-5.1-2.8
		h-14.7c-3.9,0-6,2.7-6,2.7l-41.1,52.5L222,328.5L222,328.5z M220.2,301.6l-9.8-12.5c-2-3.2,0.9-5.5,0.9-5.5
		c3.7-2.1,5.8,1.2,5.8,1.2l8.1,10.4l9.6-12.3l-11.1-14.2c-2.7-3.8-6.7-3.2-6.7-3.2h-13.3c-4.2,0-6.1,2.6-6.1,2.6L186,282.7
		l24.5,31.1L220.2,301.6L220.2,301.6z"/>
	<path class="st0" d="M258.2,312.3c0,0-1.1-1.7-3.3-1.7c-2.3,0-3.2,1.5-3.2,1.5l-35,44.6c-2.8,3.1-5.9,0.6-5.9,0.6
		c-2.7-2.8-0.5-5.5-0.5-5.5l7.8-10l0-0.1c1.4-1.4,1.4-3.6,0.2-5.1v0l-7.8-9.8L186,358.3l13.7,17.3l21.6,0.1l43.4-55.1L258.2,312.3
		L258.2,312.3z M260,339.2l9.9,12.7c2.3,3.2-0.6,5.5-0.6,5.5c-3.8,2.5-6.1-1.3-6.1-1.3l-8.3-10.5l-9.6,12.3l13.9,17.7l21.4-0.1
		l13.7-17.5l-24.6-31.2C269.6,326.9,260,339.2,260,339.2z M294,310.8c-5.5,0-9.9,4.4-9.9,9.8c0,5.4,4.5,9.8,9.9,9.8
		c5.5,0,10-4.4,10-9.8C304,315.1,299.5,310.8,294,310.8 M294,325.8c-2.9,0-5.2-2.4-5.2-5.2c0-2.9,2.3-5.2,5.2-5.3
		c2.9,0,5.2,2.4,5.2,5.2C299.3,323.4,296.9,325.8,294,325.8 M240.1,265.3c5.5,0,9.9-4.4,9.9-9.8c0-5.4-4.5-9.8-9.9-9.8
		c-5.5,0-9.9,4.4-9.9,9.8C230.1,261,234.6,265.3,240.1,265.3 M240.1,250.3c2.9,0,5.2,2.4,5.2,5.2c0,2.9-2.3,5.2-5.2,5.2
		c-2.9,0-5.2-2.3-5.2-5.2C234.8,252.7,237.2,250.3,240.1,250.3L240.1,250.3 M240.1,395.6c5.5,0,9.9-4.4,9.9-9.8
		c0-5.4-4.5-9.8-9.9-9.8c-5.5,0-9.9,4.4-9.9,9.8C230.1,391.2,234.6,395.6,240.1,395.6 M240.1,380.6c2.9,0,5.2,2.4,5.2,5.2
		c0,2.9-2.3,5.2-5.2,5.2c-2.9,0-5.2-2.4-5.2-5.2C234.8,382.9,237.2,380.6,240.1,380.6 M195.9,320.5c0-5.4-4.5-9.8-9.9-9.8
		c-5.5,0-10,4.4-10,9.8c0,5.4,4.5,9.8,10,9.8C191.4,330.2,195.9,325.9,195.9,320.5 M180.7,320.5c0-2.9,2.3-5.2,5.2-5.2
		c2.9,0,5.2,2.3,5.2,5.2c0,2.9-2.3,5.2-5.2,5.2C183,325.7,180.7,323.4,180.7,320.5"/>
	<g transform="translate(0 2.556)">
		<defs>
			<filter id="Adobe_OpacityMaskFilter" filterUnits="userSpaceOnUse" x="21.9" y="253" width="114.3" height="129.9">
				<feColorMatrix  type="matrix" values="1 0 0 0 0  0 1 0 0 0  0 0 1 0 0  0 0 0 1 0"/>
			</filter>
		</defs>
		<mask maskUnits="userSpaceOnUse" x="21.9" y="253" width="114.3" height="129.9" id="b_1_">
			<g class="st1">
				<path id="a_1_" class="st2" d="M21.9,253h114.3v129.9H21.9V253z"/>
			</g>
		</mask>
		<path class="st3" d="M133.4,255.7v73c0,8.8-2.8,17-8.3,24.3c-4.5,5.9-10.8,11.3-18.8,15.9c-12.2,7.1-24.5,10.4-27.3,11.1
			c-2.8-0.7-15-3.9-27.2-11c-8-4.7-14.3-10-18.8-15.9c-5.5-7.3-8.4-15.5-8.4-24.3v-73C24.7,255.7,133.4,255.7,133.4,255.7z
			 M136.2,253H21.9v75.8c0,41.6,57.1,54.1,57.1,54.1h0.1c0,0,57.1-12.5,57.1-54.1C136.2,328.7,136.2,253,136.2,253z"/>
	</g>
	<path class="st4" d="M92.9,279.8v-7h-7.2v6.5h-2.8v-6.5h-7.4v6.5h-2.8v-6.5h-7.3v7l3.6,6.1c0.1,0.2,0.2,0.5,0.2,0.7l0,31.9h3.5
		l0-11.4c0-2.7,3.1-5.2,6.5-5.2c3.4,0,6.5,2.5,6.5,5.2l0,11.4h3.6l0-12.1l0-0.2v-6c0,0,0-0.1,0-0.1l0-4.4l0,0v-1.9l0-7.2
		c0-0.3,0.1-0.5,0.2-0.7L92.9,279.8L92.9,279.8z M66.3,319.2l0-10.6l-1.3,0.8c-0.5,0.3-1.1,0.3-1.5,0l-1.5-1c0,0,0,0.1,0,0.1
		l-0.1,4.1c0,0.4-0.2,0.8-0.5,1.1c0.2,0.1,0.3,0.1,0.4,0.2c1.9,1.5,2,3.6,1.6,5.4C63.5,319.2,66.3,319.2,66.3,319.2z"/>
	<path class="st4" d="M79.1,304.6c-2.2,0-3.7,1.5-3.7,2.4l0,11.4h7.3l0-11.4C82.7,306.2,81.2,304.6,79.1,304.6"/>
	<path class="st4" d="M36.2,319.2c-0.4-1-0.7-2.1-0.9-3.2c-0.4-2.2-0.3-4.2-0.3-4.3c0-0.6,0.4-1.1,1-1.3l3.1-0.9l-3.5-2.4
		c-0.4-0.3-0.6-0.7-0.6-1.1V302c0-0.5,0.3-1,0.8-1.2l1.4-0.7v-1.3l-1.2-0.5c-0.5-0.2-0.9-0.7-0.9-1.3l0-4.7c0-0.8,0.6-1.4,1.4-1.4
		l4.3,0c-0.1-1.1-0.1-2.7,0.2-4c0.4-1.7,1.4-3.6,1.9-4.5l-0.2-1.6c-0.1-0.8,0.4-1.5,1.2-1.6c0.1,0,0.1,0,0.2,0h2.3
		c0.3,0,0.5,0.1,0.8,0.2l5.7,3.6h2.6c0.4,0,0.7,0.2,1,0.4c0.3,0.3,0.4,0.6,0.4,1l-0.2,4.5c0,0.4-0.2,0.7-0.5,1l1.7,0
		c0.4,0,0.7,0.2,1,0.4l0.8,0.8l0.6-0.5l1-2.1c0.2-0.5,0.7-0.8,1.3-0.8h3.7V287l-3.6-6.1c-0.1-0.2-0.2-0.5-0.2-0.7v-8.7
		c0-0.8,0.6-1.4,1.4-1.4h30.4c0.8,0,1.4,0.6,1.4,1.4v8.7c0,0.2-0.1,0.5-0.2,0.7l-3.6,6.1v0.8h3.7c0.5,0,1,0.3,1.3,0.8l1,2.1l0.6,0.5
		l0.8-0.8c0.3-0.3,0.6-0.4,1-0.4l1.7,0c-0.3-0.3-0.4-0.6-0.5-1l-0.2-4.5c0-0.8,0.6-1.4,1.3-1.5c0,0,0.1,0,0.1,0h2.6l5.7-3.6
		c0.2-0.1,0.5-0.2,0.8-0.2h2.3c0.8,0,1.4,0.6,1.4,1.4c0,0.1,0,0.1,0,0.2l-0.2,1.6c0.5,0.8,1.5,2.7,1.9,4.5c0.3,1.3,0.3,2.9,0.2,4
		l4.3,0c0.8,0,1.4,0.6,1.4,1.4l0,4.7c0,0.6-0.3,1.1-0.9,1.3l-1.2,0.5v1.3l1.4,0.7c0.5,0.2,0.8,0.7,0.8,1.2v3.9
		c0,0.5-0.2,0.9-0.6,1.1l-3.5,2.4l3.1,0.9c0.6,0.2,1,0.7,1,1.3c0,0.1,0.1,2.1-0.3,4.3c-0.2,1.1-0.5,2.2-0.9,3.2h5.1l0.1,0v-54h-96
		v54H36.2z"/>
	<path class="st4" d="M96.3,313.8c0.1-0.1,0.3-0.2,0.4-0.2c-0.3-0.3-0.5-0.7-0.5-1.1l-0.1-4.1c0-0.1,0-0.1,0-0.1l-1.5,1.1
		c-0.5,0.3-1,0.3-1.5,0l-1.2-0.7l0,10.5h2.8C94.3,317.4,94.5,315.3,96.3,313.8 M115,348.1c-0.8,0-1.4-0.6-1.4-1.4v-9.1
		c0-0.7-0.4-1.5-1-2.1c-0.8-0.8-1.8-1.2-2.9-1.1c-2.2,0-3.4,1.7-3.6,3.3v9.1c0,0.8-0.6,1.4-1.4,1.4c0,0,0,0,0,0h-8.4
		c-0.8,0-1.4-0.6-1.4-1.4c0,0,0,0,0,0v-9.1c0-0.7-0.4-1.5-1.1-2.1c-0.8-0.8-1.8-1.2-2.9-1.1c-0.9,0-1.8,0.4-2.4,1l6.9,34.8
		c9.7-4.3,21.1-11.2,27.3-22C122.7,348.1,115,348.1,115,348.1z M92.7,370.9L83,322h-7.8l-9.6,49c0,0.1,0,0.1-0.1,0.2
		c6.7,2.7,12.1,4.1,13.7,4.6c1.5-0.5,6.9-1.9,13.6-4.6C92.7,371.1,92.7,371,92.7,370.9 M69.7,335.2c-0.7-0.6-1.5-0.9-2.4-0.9
		c0,0-0.1,0-0.1,0c-1.4,0-2.3,0.6-2.8,1.1c-0.6,0.6-1,1.5-1,2.1v9.1c0,0.8-0.6,1.4-1.4,1.4l-8.4,0c-0.8,0-1.4-0.6-1.4-1.4v-9.1
		c-0.2-1.6-1.5-3.3-3.6-3.3h-0.1c-1.4,0-2.3,0.6-2.8,1.1c-0.6,0.6-1.1,1.5-1.1,2.1v9.1c0,0.8-0.6,1.4-1.4,1.4c0,0,0,0,0,0l-7.6,0
		c6.2,10.7,17.6,17.7,27.2,22C62.9,370,69.7,335.2,69.7,335.2z"/>
	<path class="st4" d="M127.1,322H85.9l2,10.3c2.6-1.4,5.8-0.9,7.9,1.2c1.2,1.2,1.9,2.7,1.9,4.1v7.7h5.5v-7.7l0-0.1
		c0.3-3.3,3.1-5.9,6.4-5.9c1.9,0,3.6,0.7,4.9,1.9c1.2,1.2,1.9,2.7,1.9,4.1v7.7h7.7c2-4.5,3.1-9.3,3.1-14.2L127.1,322L127.1,322
		 M41.9,345.3v-7.7c0-1.4,0.7-3,1.9-4.1c1.3-1.3,3.1-2,4.9-1.9c3.4,0.1,6.2,2.7,6.4,6.1v7.7h5.5v-7.7c0-1.4,0.7-3,1.9-4.1
		c1.3-1.3,3.1-2,4.9-1.9c1,0,2,0.3,2.9,0.7l2-10.2H31.1v9.1c0,5.3,1.1,10,3.1,14.2C34.2,345.3,41.9,345.3,41.9,345.3z M45.2,316.3
		h2.3c0.2,0.3,0.3,0.6,0.3,0.9l0,0.6c0,0.5-0.1,1-0.2,1.4h-8c-1.2-0.8-1.7-3.9-1.8-6.4l3.5-1.1c0.6-0.2,1-0.7,1-1.3V309
		c0-0.5-0.2-0.9-0.6-1.1l-3.9-2.7v-2.3l1.4-0.7c0.5-0.2,0.8-0.7,0.8-1.2v-3.1c0-0.6-0.3-1.1-0.9-1.3l-1.2-0.5v-2.3l3.7,0l1.7,2.9
		l0,4l-1.2,3.8c-0.2,0.7,0.2,1.5,0.9,1.8c0.1,0,0.3,0.1,0.4,0.1h1.1c0.7,0,1.3-0.5,1.4-1.2c0.1-0.6,0.4-2.4,0.8-3.2
		c0.2-0.6,1.2-2,1.9-2.7c0.4-0.5,0.4-1.3,0-1.8l-4.8-5.5c-0.1-0.8-0.3-2.8,0-4.2c0.3-1.5,1.4-3.4,1.8-4.1c0.2-0.3,0.2-0.6,0.2-0.9
		l-0.1-0.5h0.3l5.7,3.6c0.2,0.1,0.5,0.2,0.8,0.2h1.6l-0.1,2.1l-1.8,0.7c-0.6,0.2-0.9,0.7-0.9,1.3l0,1.4c0,0.8,0.6,1.4,1.4,1.4l4.8,0
		l1.3,1.3c0.5,0.5,1.3,0.6,1.9,0.1c0,0,2.2-1.7,2.3-1.9l0.8-1.6h2.8v5.1c0,0-5.1,1.7-5.6,2c-0.3,0.2-0.5,1.7-0.5,2.1s0,0.5,0.6,0.9
		c0,0,1.5,1.2,1.9,1.3l1.5-1.4l2,0.1v4.7l-1.9,1.1l-5.9-4c-0.6-0.4-1.4-0.3-1.9,0.3l-0.9,1.2c-0.4,0.6-0.4,1.4,0.1,1.9l3.4,3.1
		l0,2.6l-3.4,1.5c-0.5,0.2-0.8,0.7-0.8,1.3v0.6c0,0.8,0.6,1.4,1.4,1.4h4.1c0.7,0.9,0.4,2.1,0.1,2.9h-9.4c-0.3-0.3-0.5-0.9-0.6-1.6
		c0-0.2,0-0.4,0-0.5c0-0.8,0.1-1.6,0.2-2.3L53,312c0.2-0.2,0.3-0.5,0.3-0.8l0.1-1.3c0-0.8-0.6-1.4-1.4-1.5c-0.2,0-0.4,0-0.6,0.1
		l-3.5,1.4c-0.5,0.2-0.8,0.6-0.9,1.1l-0.2,1.4l-2,0.6c-0.6,0.2-1,0.7-1,1.3v0.6C43.8,315.7,44.4,316.3,45.2,316.3 M113,316.3h-2.3
		c-0.2,0.3-0.3,0.6-0.3,0.9c0,0.2,0,0.4,0,0.6c0,0.5,0.1,1,0.2,1.4h8c1.2-0.8,1.7-3.9,1.8-6.4l-3.5-1.1c-0.6-0.2-1-0.7-1-1.3V309
		c0-0.5,0.2-0.9,0.6-1.1l3.9-2.7v-2.3l-1.4-0.7c-0.5-0.2-0.8-0.7-0.8-1.2v-3.1c0-0.6,0.3-1.1,0.9-1.3l1.2-0.5v-2.3l-3.7,0l-1.8,2.9
		l0,4l1.2,3.8c0.1,0.4,0.1,0.9-0.2,1.2c-0.3,0.4-0.7,0.6-1.1,0.6h-1.1c-0.7,0-1.3-0.5-1.4-1.2c-0.1-0.6-0.4-2.4-0.7-3.2
		c-0.2-0.6-1.2-2-1.9-2.7c-0.4-0.5-0.4-1.3,0-1.8l4.8-5.5c0.1-0.8,0.3-2.8,0-4.2c-0.3-1.5-1.4-3.4-1.8-4.1c-0.2-0.3-0.2-0.6-0.2-0.9
		l0.1-0.5h-0.3l-5.7,3.6c-0.2,0.1-0.5,0.2-0.8,0.2h-1.6l0.1,2.1l1.8,0.7c0.6,0.2,0.9,0.7,0.9,1.3l0,1.4c0,0.8-0.6,1.4-1.4,1.4
		l-4.8,0l-1.3,1.3c-0.5,0.5-1.3,0.6-1.9,0.1c0,0-2.2-1.7-2.3-1.9l-0.8-1.6h-2.8v5.1c0,0,5.1,1.7,5.6,2c0.3,0.2,0.5,1.7,0.5,2.1
		c-0.1,0.4,0,0.5-0.6,0.9c0,0-1.5,1.2-2,1.3l-1.5-1.4l-2,0.1v4.7l1.9,1.1l5.9-4c0.6-0.4,1.4-0.3,1.9,0.3l0.9,1.2
		c0.4,0.6,0.4,1.4-0.1,1.9L99,309l0,2.6l3.4,1.5c0.5,0.2,0.8,0.7,0.8,1.3v0.6c0,0.8-0.6,1.4-1.4,1.4c0,0,0,0,0,0h-4.1
		c-0.7,0.9-0.4,2.1-0.1,2.9h9.4c0.3-0.3,0.5-0.9,0.5-1.6c0-0.2,0-0.4,0-0.5c0-0.8-0.1-1.6-0.2-2.3l-2.2-2.8
		c-0.2-0.2-0.3-0.5-0.3-0.8l-0.1-1.3c0-0.5,0.2-0.9,0.6-1.2c0.4-0.3,0.9-0.3,1.3-0.2l3.5,1.4c0.5,0.2,0.8,0.6,0.9,1.1l0.2,1.4l2,0.6
		c0.6,0.2,1,0.7,1,1.3v0.6C114.4,315.7,113.8,316.3,113,316.3C113,316.3,113,316.3,113,316.3 M334.1,303.9L334.1,303.9
		c0-5.4,3.9-10.1,9.8-10.1c3.3,0,5.3,0.9,7.3,2.6l-1.4,1.7c-1.5-1.3-3.2-2.2-5.9-2.2c-4.3,0-7.4,3.6-7.4,7.9v0.1c0,4.6,3,8,7.7,8
		c2,0,4-0.7,5.6-1.9v-4.8h-5.9v-2h8v7.7c-2.2,1.9-4.9,3-7.8,3C337.9,313.9,334.1,309.5,334.1,303.9 M359,303.9L359,303.9
		c0-5.4,4-10.1,10-10.1c5.9,0,9.9,4.6,9.9,10v0.1c0,5.3-4,10-10,10C363,313.9,359,309.3,359,303.9 M376.6,303.9L376.6,303.9
		c0-4.5-3.2-8-7.7-8c-4.5,0-7.6,3.5-7.6,7.9v0.1c0,4.4,3.2,8,7.7,8C373.4,311.9,376.6,308.3,376.6,303.9 M386.7,294.2h8.3
		c2.2,0,4,0.6,5.1,1.7c0.8,0.8,1.3,1.9,1.3,3.1v0.1c0,2.5-1.6,3.8-3.1,4.5c2.3,0.7,4.2,2,4.2,4.7v0.1c0,3.3-2.8,5.3-7.1,5.3h-8.7
		C386.7,313.5,386.7,294.2,386.7,294.2z M399.1,299.3c0-1.9-1.5-3.2-4.3-3.2h-5.9v6.7h5.8C397.3,302.8,399.1,301.6,399.1,299.3
		L399.1,299.3L399.1,299.3z M395.1,304.8h-6.2v6.8h6.5c2.9,0,4.8-1.3,4.8-3.5v-0.1C400.2,306,398.5,304.8,395.1,304.8z"/>
	<defs>
		<filter id="Adobe_OpacityMaskFilter_1_" filterUnits="userSpaceOnUse" x="333.7" y="293.9" width="288.3" height="53.2">
			<feColorMatrix  type="matrix" values="1 0 0 0 0  0 1 0 0 0  0 0 1 0 0  0 0 0 1 0"/>
		</filter>
	</defs>
	<mask maskUnits="userSpaceOnUse" x="333.7" y="293.9" width="288.3" height="53.2" id="d_1_">
		<g class="st5">
			<path id="c_1_" class="st2" d="M21.9,395.6h600V245.8h-600V395.6z"/>
		</g>
	</mask>
	<path class="st6" d="M410.3,313.5h2.2v-19.4h-2.2V313.5z M421.4,294.2h14.1v2h-11.9v6.6h10.6v2h-10.6v6.8h12v2h-14.2V294.2z
		 M442.9,294.2h8.4c2.4,0,4.3,0.7,5.5,1.9c0.9,0.9,1.5,2.3,1.5,3.8v0.1c0,3.2-2.2,5.1-5.3,5.6l6,7.9h-2.7l-5.6-7.5h-5.6v7.5h-2.2
		L442.9,294.2L442.9,294.2z M451.1,304.1c2.9,0,5-1.5,5-4V300c0-2.4-1.8-3.8-5-3.8h-6v7.9H451.1z M466.3,294.2h2.1l12.3,15.5v-15.5
		h2.1v19.4H481l-12.6-15.9v15.9h-2.1L466.3,294.2z M490.6,303.9L490.6,303.9c0-5.4,4-10.1,10-10.1c5.9,0,9.9,4.6,9.9,10v0.1
		c0,5.3-4,10-10,10C494.6,313.9,490.6,309.3,490.6,303.9 M508.2,303.9L508.2,303.9c0-4.5-3.2-8-7.7-8c-4.5,0-7.6,3.5-7.6,7.9v0.1
		c0,4.4,3.2,8,7.7,8C505,311.9,508.2,308.3,508.2,303.9 M528.4,294.2h6.8c6.1,0,10.3,4.2,10.3,9.6v0.1c0,5.4-4.2,9.7-10.3,9.7h-6.8
		V294.2z M530.6,296.2v15.3h4.6c4.9,0,8.1-3.3,8.1-7.6v-0.1c0-4.3-3.1-7.7-8.1-7.7H530.6z M552.5,294.2h14.1v2h-11.9v6.6h10.6v2
		h-10.6v6.8h12v2h-14.2V294.2z M584.3,294.2h2.2v17.3h11v2h-13.2L584.3,294.2z M610.9,294h2.1l8.9,19.5h-2.4l-2.3-5.1h-10.6
		l-2.3,5.1H602C602,313.5,610.9,294,610.9,294z M616.3,306.4l-4.4-9.8l-4.4,9.8H616.3z M333.7,337.1L333.7,337.1
		c0-5.6,4.2-10.1,10.2-10.1c3.7,0,5.9,1.2,7.7,3l-2.7,3.1c-1.5-1.4-3-2.2-5-2.2c-3.3,0-5.6,2.7-5.6,6v0.1c0,3.3,2.3,6.1,5.6,6.1
		c2.2,0,3.6-0.9,5.1-2.3l2.7,2.7c-2,2.1-4.2,3.5-8,3.5C337.9,347.1,333.7,342.7,333.7,337.1 M355.2,346.7h4.3v-19.4h-4.3V346.7z
		 M364.4,338.4v-11.1h4.3v11c0,3.2,1.6,4.8,4.2,4.8s4.2-1.6,4.2-4.6v-11.1h4.3v10.9c0,5.9-3.3,8.7-8.5,8.7
		C367.6,347,364.4,344.1,364.4,338.4 M386.2,327.4h7.6c6.1,0,10.3,4.2,10.3,9.6v0.1c0,5.4-4.2,9.7-10.3,9.7h-7.6V327.4z
		 M393.8,342.9c3.5,0,5.9-2.3,5.9-5.8v-0.1c0-3.4-2.4-5.8-5.9-5.8h-3.3v11.7H393.8z M413.7,327.2h4l8.3,19.5h-4.5l-1.8-4.3h-8.2
		l-1.8,4.3h-4.4L413.7,327.2L413.7,327.2z M418.2,338.6l-2.6-6.3l-2.6,6.3H418.2z M429.1,327.4h7.6c6.1,0,10.3,4.2,10.3,9.6v0.1
		c0,5.4-4.2,9.7-10.3,9.7h-7.6V327.4z M436.7,342.9c3.5,0,5.9-2.3,5.9-5.8v-0.1c0-3.4-2.4-5.8-5.9-5.8h-3.3v11.7H436.7z
		 M459.5,327.4h7.6c6.1,0,10.3,4.2,10.3,9.6v0.1c0,5.4-4.2,9.7-10.3,9.7h-7.6L459.5,327.4L459.5,327.4z M467.1,342.9
		c3.5,0,5.9-2.3,5.9-5.8v-0.1c0-3.4-2.4-5.8-5.9-5.8h-3.3v11.7H467.1z M481.5,327.4h14.7v3.8h-10.4v3.9h9.2v3.8h-9.2v4.1h10.6v3.8
		h-14.8L481.5,327.4z M508.7,327.4h4.6l5.1,8.2l5.1-8.2h4.6v19.4h-4.3v-12.6l-5.5,8.3h-0.1l-5.4-8.2v12.6h-4.2L508.7,327.4z
		 M533.3,327.4H548v3.8h-10.4v3.9h9.2v3.8h-9.2v4.1h10.6v3.8h-14.8L533.3,327.4L533.3,327.4z M541.5,321l3.6,1.6l-3.6,3.3h-3.2
		L541.5,321L541.5,321z M557.7,336.9l-6.5-9.5h5l4.1,6.3l4.1-6.3h4.9l-6.5,9.5l6.8,9.9h-5l-4.4-6.6l-4.4,6.6h-4.9L557.7,336.9z
		 M572.8,346.7h4.3v-19.4h-4.3V346.7z M581.2,337.1L581.2,337.1c0-5.6,4.2-10.1,10.2-10.1c3.7,0,5.9,1.2,7.7,3l-2.7,3.1
		c-1.5-1.4-3-2.2-5-2.2c-3.3,0-5.6,2.7-5.6,6v0.1c0,3.3,2.3,6.1,5.6,6.1c2.2,0,3.6-0.9,5.1-2.3l2.7,2.7c-2,2.1-4.2,3.5-8,3.5
		C585.5,347.1,581.2,342.7,581.2,337.1 M601.2,337.1L601.2,337.1c0-5.6,4.4-10.1,10.4-10.1c6,0,10.3,4.5,10.3,10v0.1
		c0,5.5-4.4,10-10.4,10C605.6,347.1,601.2,342.6,601.2,337.1 M617.5,337.1L617.5,337.1c0-3.4-2.5-6.1-5.9-6.1c-3.5,0-5.8,2.7-5.8,6
		v0.1c0,3.3,2.4,6.1,5.9,6.1C615.1,343.1,617.5,340.4,617.5,337.1"/>
</g>
</svg>
